<?xml version="1.0" encoding="UTF-8"?>
<svg xmlns="http://www.w3.org/2000/svg" xmlns:xlink="http://www.w3.org/1999/xlink" width="16px" height="16px" viewBox="0 0 16 16" version="1.1">
<g id="surface1">
<path style=" stroke:none;fill-rule:nonzero;fill:rgb(14.901961%,22.745098%,47.843137%);fill-opacity:1;" d="M 16 8 C 16 12.417969 12.417969 16 8 16 C 3.582031 16 0 12.417969 0 8 C 0 3.582031 3.582031 0 8 0 C 12.417969 0 16 3.582031 16 8 Z M 16 8 "/>
<path style=" stroke:none;fill-rule:nonzero;fill:rgb(7.058824%,6.666667%,28.627451%);fill-opacity:1;" d="M 12.375 4.652344 L 3.695312 10.496094 L 9.117188 15.921875 C 12.917969 15.390625 15.863281 12.1875 15.996094 8.273438 Z M 12.375 4.652344 "/>
<path style=" stroke:none;fill-rule:nonzero;fill:rgb(100%,92.941176%,70.980392%);fill-opacity:1;" d="M 4.109375 4.445312 L 11.890625 4.445312 C 12.261719 4.445312 12.5625 4.746094 12.5625 5.117188 L 12.5625 9.964844 C 12.5625 10.335938 12.261719 10.636719 11.890625 10.636719 L 11.257812 10.636719 L 11.257812 12.109375 C 11.257812 12.398438 10.910156 12.542969 10.707031 12.335938 L 9.007812 10.636719 L 4.109375 10.636719 C 3.738281 10.636719 3.4375 10.335938 3.4375 9.964844 L 3.4375 5.117188 C 3.4375 4.746094 3.738281 4.445312 4.109375 4.445312 Z M 4.109375 4.445312 "/>
<path style=" stroke:none;fill-rule:nonzero;fill:rgb(99.607843%,88.235294%,52.941176%);fill-opacity:1;" d="M 12.5625 5.117188 C 12.5625 4.746094 12.261719 4.445312 11.890625 4.445312 L 7.980469 4.445312 L 7.980469 10.636719 L 9.007812 10.636719 L 10.707031 12.335938 C 10.910156 12.542969 11.257812 12.398438 11.257812 12.109375 L 11.257812 10.636719 L 11.890625 10.636719 C 12.261719 10.636719 12.5625 10.335938 12.5625 9.964844 Z M 12.5625 5.117188 "/>
<path style=" stroke:none;fill-rule:nonzero;fill:rgb(99.607843%,88.235294%,52.941176%);fill-opacity:1;" d="M 10.707031 12.335938 C 10.910156 12.542969 11.257812 12.398438 11.257812 12.109375 L 11.257812 10.636719 L 11.890625 10.636719 C 12.226562 10.636719 12.5 10.394531 12.554688 10.074219 L 8 7.109375 L 3.445312 10.074219 C 3.5 10.394531 3.773438 10.636719 4.109375 10.636719 L 9.007812 10.636719 Z M 10.707031 12.335938 "/>
<path style=" stroke:none;fill-rule:nonzero;fill:rgb(100%,78.823529%,10.588235%);fill-opacity:1;" d="M 8 7.109375 L 7.980469 7.121094 L 7.980469 10.636719 L 9.007812 10.636719 L 10.707031 12.335938 C 10.910156 12.542969 11.257812 12.398438 11.257812 12.109375 L 11.257812 10.636719 L 11.890625 10.636719 C 12.226562 10.636719 12.5 10.394531 12.554688 10.074219 Z M 8 7.109375 "/>
<path style=" stroke:none;fill-rule:nonzero;fill:rgb(100%,77.647059%,10.588235%);fill-opacity:1;" d="M 3.652344 4.625 L 8 8 L 12.347656 4.625 C 12.226562 4.511719 12.066406 4.445312 11.890625 4.445312 L 4.109375 4.445312 C 3.933594 4.445312 3.773438 4.511719 3.652344 4.625 Z M 3.652344 4.625 "/>
<path style=" stroke:none;fill-rule:nonzero;fill:rgb(83.137255%,54.509804%,2.745098%);fill-opacity:1;" d="M 12.347656 4.625 C 12.226562 4.511719 12.066406 4.445312 11.890625 4.445312 L 7.980469 4.445312 L 7.980469 7.984375 L 8 8 Z M 12.347656 4.625 "/>
</g>
</svg>
